<svg xmlns="http://www.w3.org/2000/svg" viewBox="0 0 664 115"><defs><style>.cls-1{fill:#1d1d1b;}.cls-2{fill:#fff;}</style></defs><g id="Capa_2" data-name="Capa 2"><g id="Capa_1-2" data-name="Capa 1"><path d="M108.59,22.76v67c-.19.67-.36,1.35-.58,2-1.65,4.87-5.93,7.84-11.36,7.86H75.88c-21.12,0-42.24-.09-63.36,0A12.11,12.11,0,0,1,0,88H0v-.81c.2-20.8.07-41.56.08-62.41,0-6.81,4.86-11.82,11.69-11.83q42.56-.06,85.09,0a11.47,11.47,0,0,1,9.25,4.35A13.5,13.5,0,0,1,108.59,22.76ZM70,46.31,100.38,18.1l-.07-.39a27.12,27.12,0,0,0-3.7-.47H11.94a5.62,5.62,0,0,0-1.16,0c-.84.17-1.67.4-2.76.67L38.71,46.34a10.86,10.86,0,0,1,8-2.83c3.11.2,5.45,1.9,7.63,3.89C59.16,42.82,64.48,42,70,46.31ZM103.69,21c-.49.4-.66.52-.81.66Q88,35.5,73,49.38a.92.92,0,0,0-.23,1.2c1.7,4.69.65,8.86-2.53,12.58-.66.77-1.41,1.46-2.18,2.25L103.5,92.13a23.34,23.34,0,0,0,.82-4.14q.08-31.68,0-63.36a23.66,23.66,0,0,0-.59-3.66ZM5.18,92.1,40.57,65.33c-.83-.85-1.65-1.58-2.34-2.42-3-3.61-4-7.65-2.4-12.14a1.31,1.31,0,0,0-.45-1.68L6.17,22c-.3-.28-.61-.54-1.22-1.08a23.77,23.77,0,0,0-.61,3.65Q4.28,56.32,4.34,88A21.53,21.53,0,0,0,5.18,92.1ZM9,94.58V95c1.07.09,2.14.28,3.21.28h84.3a9.14,9.14,0,0,0,1.48,0c.59-.09,1.16-.27,1.92-.46L64.64,68.18c-2.89,2-5.73,4.07-8.6,6.06-1.38,1-2,1-3.37,0-2.89-2-5.77-4-8.69-6.1Zm30.45-39.8a8,8,0,0,0,3,6.28c3.73,3,7.6,5.86,11.43,8.74a1,1,0,0,0,.91,0c4-3.08,8.13-6.08,12-9.35a7.43,7.43,0,0,0,2.41-6.82c-.5-4.28-5.68-8-10-4.66a19.4,19.4,0,0,0-2.75,2.61c-1.58,1.82-2.7,1.82-4.27-.08a16.43,16.43,0,0,0-2.08-2.09,6.15,6.15,0,0,0-3.83-1.63,6.81,6.81,0,0,0-6.86,6.76v.32Z"/><path d="M308.59,93.51a3.17,3.17,0,0,1-3.1,1.53h-139c-2.53,0-3.15-.65-3.15-3.22V20.74c0-2.58.61-3.22,3.15-3.22h139a3.19,3.19,0,0,1,3.09,1.53ZM167.93,90.3H304V22.24H168Z"/><path d="M236,26.72h50.19c2.53,0,3.15.58,3.34,3.11a7.66,7.66,0,0,0,7.17,6.83c1.93.13,2.73.93,2.73,2.85V73c0,1.92-.81,2.72-2.73,2.85a7.6,7.6,0,0,0-7.18,7.25c-.13,1.91-1,2.69-2.9,2.69H185.28c-1.95,0-2.77-.78-2.9-2.69a7.61,7.61,0,0,0-7.18-7.25c-1.93-.13-2.73-.93-2.73-2.85V39.51c0-1.92.79-2.72,2.73-2.85a7.61,7.61,0,0,0,7.17-7.08c.14-2.11.9-2.83,3-2.83Zm0,54.53h47.65A1.58,1.58,0,0,0,285.49,80v-.09a11.82,11.82,0,0,1,8.32-8.18,1.18,1.18,0,0,0,1-1.31V42.11a1.18,1.18,0,0,0-1-1.35h0a11.69,11.69,0,0,1-8.24-8.06,1.78,1.78,0,0,0-2.06-1.45H188.2c-.92,0-1.36.17-1.67,1.19a11.85,11.85,0,0,1-8.23,8.27c-.79.24-1.16.5-1.16,1.4V70.39a1.19,1.19,0,0,0,1,1.34h0a11.78,11.78,0,0,1,8.31,8.19c.34,1.13.84,1.32,1.87,1.32Q212.16,81.23,236,81.25Z"/><path d="M213,56.24a23,23,0,1,1,23,23h-.21A23,23,0,0,1,213,56.24Zm22.89-18.4a18.42,18.42,0,1,0,18.46,18.38,18.42,18.42,0,0,0-18.46-18.38Z"/><path d="M243,50.91c0,1.69-.76,2.67-2,2.81-1.41.16-2.29-.57-2.58-2.17S237.25,49,235.87,49a2.33,2.33,0,0,0-2.39,2c-.35,1.59.84,2.84,2.77,3A7,7,0,0,1,243,61.26v.22a6.62,6.62,0,0,1-3.74,5.79,1.6,1.6,0,0,0-1.07,1.84,8.13,8.13,0,0,1,0,1.56,2.31,2.31,0,0,1-2.32,2.06c-1.11,0-2.28-.94-2.14-2,.25-2-.51-3.18-2.25-4.24a6,6,0,0,1-2.61-5.25,2.2,2.2,0,0,1,2-2.42H231a2.16,2.16,0,0,1,2.42,1.86h0v.13a2.74,2.74,0,0,0,1.73,2.53,2.42,2.42,0,0,0,3.1-1.42,1.92,1.92,0,0,0,.09-.32,2.48,2.48,0,0,0-1.83-3h-.36a21,21,0,0,1-2.09-.29,7.05,7.05,0,0,1-1.41-13.06,1.61,1.61,0,0,0,1-1.84,8.13,8.13,0,0,1,0-1.56,2.26,2.26,0,0,1,2.18-2c1.16,0,2.41.88,2.27,2-.24,2,.54,3.18,2.26,4.23A6,6,0,0,1,243,50.91Z"/><path d="M481.48,37.05h12.58V30.46a2.11,2.11,0,0,1,4-1,3.14,3.14,0,0,1,.21,1.36v5.92a17.37,17.37,0,0,1,3.21,2.45,5.29,5.29,0,0,1,1,3c.12,3.52,0,7.06,0,10.59,0,3.09-1.13,4.62-4.17,5.6V86.05a16.42,16.42,0,0,1,2.07,1,4.62,4.62,0,0,1,2.1,3.94v11.44a4.83,4.83,0,0,1-4.78,4.88H380.52c-3.79,0-5.65-1.84-5.65-5.59V92.4c0-3.83.67-4.87,4.23-6.38,0-3.18-.07-6.42.06-9.65a2.66,2.66,0,0,1,1.25-1.94,2.09,2.09,0,0,1,2.73,1.13v0a2.13,2.13,0,0,1,.15,1c.07,3.1,0,6.21,0,9.43H396V58.58H383.36v7.88a1.77,1.77,0,0,1-1.44,2,3.43,3.43,0,0,1-2.24-.62c-.4-.3-.51-1.17-.52-1.78-.06-2.54,0-5.07,0-7.57-3.26-1.17-4.23-2.55-4.23-5.9V42.71c0-3,1.2-4.58,4.23-5.49V10.58a5,5,0,0,1,4.64-5.33,3.11,3.11,0,0,1,.61,0H395a5.36,5.36,0,0,1,4.52,2.18,2,2,0,0,0,1.39.61c2.73.06,5.46,0,8.19,0a2.24,2.24,0,0,1,2.42,2v.17a2.32,2.32,0,0,1-2.37,2.15h-8.71V22.58H428.2v-10c-.51,0-1-.06-1.42-.06h-6.64c-1.93,0-3-.8-3.07-2.17s1.09-2.21,3-2.21c2.49,0,5,0,7.48,0a2.7,2.7,0,0,0,1.7-.83,5.38,5.38,0,0,1,4.07-1.94q5.51-.06,11,0a5.22,5.22,0,0,1,4.26,2.12,2,2,0,0,0,1.37.66q13.33.06,26.68,0A2,2,0,0,0,478,7.47a5,5,0,0,1,4-2.09c3.81-.06,7.62-.09,11.43,0a4.87,4.87,0,0,1,4.89,4.85h0v10c0,1.63-.81,2.55-2.16,2.53s-2.06-.93-2.07-2.48V11.12c0-1-.34-1.42-1.39-1.4-3.34,0-6.68,0-10,0-.84,0-1.33.18-1.33,1.16V36.71A2.3,2.3,0,0,0,481.48,37.05Zm-81.12,33h45.89a11.06,11.06,0,0,1,1.41,0,2.11,2.11,0,0,1,1.93,2.22,2,2,0,0,1-2,2H400.4V86.08H477V74.36H457.47a2.17,2.17,0,0,1-2.3-2v-.12a2.2,2.2,0,0,1,2.29-2.11h19.59V58.58a2.9,2.9,0,0,0-.59-.09H458c-.81,0-1,.44-1.25,1a10.4,10.4,0,0,1-9.94,6.62c-5.36.1-10.73.09-16.09,0a10.37,10.37,0,0,1-10-6.6,1.5,1.5,0,0,0-1.66-1.06H401.57c-.4,0-.8.06-1.21.1Zm38.35,33h57.73c1.81,0,1.85,0,1.86-1.8,0-3.1-.05-6.21,0-9.31,0-1.26-.46-1.62-1.66-1.62H380.75c-1.35,0-1.69.5-1.66,1.75.07,3,0,6,0,9,0,1.94,0,1.94,2,1.94Zm.1-67.5h-12c-1.85,0-2.56.7-2.56,2.55V55.18c0,3.67,2.26,6.3,5.9,6.42,5.68.19,11.38.19,17.07,0,3.66-.11,5.93-2.73,5.95-6.38V38.14c0-1.92-.71-2.6-2.65-2.6Zm18.83,18.34a5,5,0,0,0,.56.09H497c1,0,1.3-.42,1.29-1.37V43.3c0-1.89,0-1.89-1.85-1.89h-38.8v4.17h20.5a6.67,6.67,0,0,1,1.41.07,2.1,2.1,0,0,1,.12,4.13,6.63,6.63,0,0,1-1.54.13h-20.5ZM419.78,41.58a5.07,5.07,0,0,0-.54-.09H380.42c-1,0-1.32.38-1.3,1.34,0,3.15.08,6.31,0,9.46-.05,1.48.49,1.81,1.87,1.8H418.4a9.32,9.32,0,0,0,1.4-.07V50H399.3a7.14,7.14,0,0,1-1.53-.13,2.1,2.1,0,0,1,.12-4.13,6,6,0,0,1,1.4-.07H419.8Zm61.67,16.9V86.07H494V58.51ZM396,37.06a2.17,2.17,0,0,1,.11-.42V10.8c0-.94-.39-1.22-1.28-1.21-3.25,0-6.5.07-9.74,0-1.4,0-1.74.46-1.73,1.78.05,8.1,0,16.19,0,24.28v1.43Zm53.56-14.54H477v-10H449.51Zm-17,8.73h12.71V10.71c0-.87-.41-1.13-1.22-1.12H433.76c-.81,0-1.22.25-1.22,1.12V31.25ZM400.41,37a1.28,1.28,0,0,0,.39.13h18.32c.35,0,.89-.56,1-1a6.39,6.39,0,0,1,6.23-4.77h1.88V27H400.35Zm76.72-10h-27.6v4.39h1.74a6.14,6.14,0,0,1,6,4.65c.24,1,.68,1.12,1.53,1.12h17.06c.4,0,.8-.07,1.22-.1Z"/><path d="M391.83,66.77a2.11,2.11,0,1,1-2.11-2.11h0a2.1,2.1,0,0,1,2.11,2.09Z"/><path d="M389.72,75.35a2.08,2.08,0,0,1,2.11,2v.08a2.11,2.11,0,1,1-4.22,0,2.07,2.07,0,0,1,2-2.13Z"/><path d="M489.82,17.84a2.12,2.12,0,0,1-4.22.41,1.21,1.21,0,0,1,0-.19,1.31,1.31,0,0,1,0-.28,2.12,2.12,0,1,1,4.22-.41,1.15,1.15,0,0,1,0,.19A1.31,1.31,0,0,1,489.82,17.84Z"/><path d="M487.7,30.7a2.16,2.16,0,1,1,2.12-2.2v.08A2.13,2.13,0,0,1,487.7,30.7Z"/><path d="M410,98.88H398.71c-1.68,0-2.59-.74-2.61-2.08s.88-2.14,2.54-2.15h22.87c1.64,0,2.56.8,2.53,2.15s-.93,2.08-2.61,2.08C417.6,98.89,413.79,98.88,410,98.88Z"/><path d="M467.44,98.88H456.29c-1.68,0-2.59-.74-2.61-2.08s.89-2.14,2.54-2.15h22.59c1.64,0,2.56.8,2.54,2.15s-.93,2.08-2.61,2.08C475,98.89,471.21,98.88,467.44,98.88Z"/><path d="M389.67,98.88a2.11,2.11,0,1,1,2.16-2.1,2.06,2.06,0,0,1-2,2.1Z"/><path d="M489.82,96.81a2.12,2.12,0,1,1-2.1-2.16,2.08,2.08,0,0,1,2.1,2.06h0Z"/><path d="M432.41,96.79a2.17,2.17,0,1,1-2.2-2.14h.05A2.16,2.16,0,0,1,432.41,96.79Z"/><path d="M438.65,98.88a2.12,2.12,0,1,1,2.22-2v0h0A2.15,2.15,0,0,1,438.65,98.88Z"/><path d="M449.35,96.81a2.17,2.17,0,1,1-2.18-2.16h.05A2.16,2.16,0,0,1,449.35,96.81Z"/><path d="M438.7,39.82a6.37,6.37,0,0,1,6.19,4.62A6.3,6.3,0,0,1,442,51.68a1.69,1.69,0,0,0-1.11,1.9,10.58,10.58,0,0,1,0,2.25,2.2,2.2,0,0,1-2.22,2.11c-1.25-.1-2.17-.91-2-2.08.24-2.36-.62-3.82-2.48-5.32-2.09-1.69-2.35-4.28-1.3-6.83A6.29,6.29,0,0,1,438.7,39.82Zm0,8.51a2.13,2.13,0,0,0,2.09-2,2.06,2.06,0,1,0-4.12-.2,2.15,2.15,0,0,0,2,2.2Z"/><path d="M487.72,45.58a2.17,2.17,0,1,1-2.13,2.21v-.06A2.15,2.15,0,0,1,487.72,45.58Z"/><path d="M389.66,49.93a2.16,2.16,0,1,1,2.17-2.15v.06A2.15,2.15,0,0,1,389.66,49.93Z"/><path d="M489.82,66.68a2.12,2.12,0,0,1-4.21.52s0-.09,0-.13a1,1,0,0,1,0-.25,2.12,2.12,0,1,1,4.21-.52s0,.08,0,.13A1,1,0,0,1,489.82,66.68Z"/><path d="M487.71,79.64a2.18,2.18,0,0,1-2.12-2.16,2.12,2.12,0,0,1,4.23-.29,1.4,1.4,0,0,1,0,.29A2.17,2.17,0,0,1,487.71,79.64Z"/><path d="M389.72,15.64a2.17,2.17,0,0,1,2.11,2.17,2.11,2.11,0,1,1-4.22,0A2.16,2.16,0,0,1,389.72,15.64Z"/><path d="M389.7,30.69a2.13,2.13,0,0,1-2.09-2.11h0a2.11,2.11,0,1,1,2.17,2.17Z"/><path class="cls-1" d="M138.28,41.92V56.06h13.6v3.61h-13.6V73.93h-3.85V59.67h-13.6V56.06h13.6V41.92Z"/><path class="cls-1" d="M515.41,53.65V50h31v3.61Zm0,11.8V61.84h31v3.61Z"/><path d="M345,41.72a1.44,1.44,0,1,0-2.42,1.56l0,.06a1.37,1.37,0,0,0,.38.38l11,11.1H320a1.45,1.45,0,1,0,0,2.9h34L342.92,68.78a1.44,1.44,0,0,0,0,2,1.42,1.42,0,0,0,2,0l14.56-14.55Z"/><path class="cls-1" d="M575,114a15.83,15.83,0,0,1-5.15.92,7.87,7.87,0,0,1-8.58-7.09h0a7.72,7.72,0,0,1,0-1.36c0-5,3.45-8.64,9.07-8.64a10.43,10.43,0,0,1,4.17.77l-.52,1.76a8.73,8.73,0,0,0-3.7-.72c-4.08,0-6.74,2.53-6.74,6.73s2.56,6.76,6.46,6.76a7.08,7.08,0,0,0,2.88-.45v-5h-3.4V106H575Z"/><path class="cls-1" d="M578.28,98.23a23,23,0,0,1,4.14-.35c2.32,0,3.81.43,4.85,1.37a4.23,4.23,0,0,1,1.32,3.18,4.41,4.41,0,0,1-3.16,4.27v.08c1.29.44,2.06,1.64,2.46,3.38a26.32,26.32,0,0,0,1.29,4.59H587a20.48,20.48,0,0,1-1.12-4c-.5-2.31-1.39-3.18-3.36-3.25h-2v7.25h-2.16Zm2.16,7.63h2.21c2.31,0,3.77-1.27,3.77-3.18,0-2.16-1.56-3.11-3.85-3.13a9,9,0,0,0-2.13.2Z"/><path class="cls-1" d="M594.47,109.49l-1.74,5.26h-2.24L596.18,98h2.61l5.72,16.74H602.2l-1.79-5.26ZM600,107.8,598.32,103c-.37-1.1-.62-2.09-.87-3.06h-.05c-.25,1-.52,2-.84,3l-1.64,4.85Z"/><path class="cls-1" d="M618.29,114.21a10.79,10.79,0,0,1-4.42.79c-4.72,0-8.27-3-8.27-8.47,0-5.24,3.55-8.79,8.74-8.79a9,9,0,0,1,4,.74l-.52,1.77a7.88,7.88,0,0,0-3.38-.7c-3.92,0-6.53,2.51-6.53,6.91,0,4.09,2.36,6.73,6.43,6.73a8.56,8.56,0,0,0,3.53-.7Z"/><path class="cls-1" d="M623.15,98v16.74H621V98Z"/><path class="cls-1" d="M629.64,109.49l-1.74,5.26h-2.24L631.35,98H634l5.71,16.74H637.4l-1.79-5.26Zm5.49-1.69L633.49,103c-.38-1.1-.62-2.09-.87-3.06h0c-.25,1-.52,2-.85,3l-1.64,4.85Z"/><path class="cls-1" d="M641.83,112.12a7.67,7.67,0,0,0,3.88,1.09c2.21,0,3.5-1.17,3.5-2.85s-.89-2.46-3.16-3.33c-2.73-1-4.42-2.39-4.42-4.75,0-2.61,2.16-4.54,5.42-4.54a7.43,7.43,0,0,1,3.7.82l-.6,1.76a6.56,6.56,0,0,0-3.18-.8c-2.28,0-3.15,1.37-3.15,2.51,0,1.57,1,2.34,3.33,3.23,2.83,1.1,4.27,2.46,4.27,4.92s-1.91,4.82-5.86,4.82a8.64,8.64,0,0,1-4.28-1.07Z"/><path class="cls-2" d="M664,48.51a2.14,2.14,0,0,1-2.69-.18,2.18,2.18,0,0,1-.74-2.36,2.25,2.25,0,0,1,1.92-1.69c.6-.12,1,0,1.07.8C663.65,46.18,663.88,47.31,664,48.51Z"/><path d="M613.35,38.38h-1.74a1.82,1.82,0,0,0,0,3.64h1.74a1.82,1.82,0,0,0,0-3.64Z"/><path d="M597.41,38.38h-1.74a1.82,1.82,0,1,0,0,3.64h1.74a1.82,1.82,0,1,0,0-3.64Z"/><path d="M607.43,49a1.82,1.82,0,0,0-2.57,0,.5.5,0,0,1-.7,0,1.82,1.82,0,1,0-2.57,2.57,4.15,4.15,0,0,0,5.84,0A1.82,1.82,0,0,0,607.43,49Z"/><path d="M604.51,10.09a1.82,1.82,0,0,0-1.82,1.82v2.23a1.82,1.82,0,0,0,3.64,0V11.91A1.82,1.82,0,0,0,604.51,10.09Z"/><path d="M637.11,89.49h-4.74V74.71a12.31,12.31,0,0,0,.39-21.9V34.56A28.16,28.16,0,0,0,621,11.65l1-5.61a1.79,1.79,0,0,0-.58-1.66,1.83,1.83,0,0,0-1.72-.4L611.8,6.24C605.65,0,605.36,0,604.51,0s-1.14,0-7.29,6.24L589.39,4a1.83,1.83,0,0,0-1.72.4A1.79,1.79,0,0,0,587.09,6l1,5.61a28.16,28.16,0,0,0-11.8,22.91V52.81a12.31,12.31,0,0,0,.39,21.9V89.49h-4.74a1.82,1.82,0,1,0,0,3.64h65.2a1.82,1.82,0,0,0,0-3.64ZM597.25,10a1.8,1.8,0,0,0,1.8-.47c2-2,4.21-4.22,5.46-5.39C605.76,5.34,608,7.55,610,9.56a1.8,1.8,0,0,0,1.8.47l6.08-1.75s-1.75,10.13-1.75,10.15H592.92s-1.75-10.12-1.75-10.15ZM607.71,57.8l.93,6.46a1.82,1.82,0,0,0,1.8,1.57h5.38l-.2.37-3.8,7.25H597.2l-3.8-7.25-.2-.37h5.38a1.82,1.82,0,0,0,1.8-1.57l.93-6.46a1.82,1.82,0,0,0-1.28-2,16,16,0,0,1-11.39-15.2V37.47h1.21a16.51,16.51,0,0,0,14.67-8.95,16.49,16.49,0,0,0,14.66,9h1.2V40.6A16,16,0,0,1,609,55.8,1.82,1.82,0,0,0,607.71,57.8Zm-19.06-24V31.77h0a15.8,15.8,0,0,1,3.33-9.7h10.67a12.84,12.84,0,0,1-12.8,11.76Zm31.72,0h-1.19a12.85,12.85,0,0,1-12.8-11.76h10.67a15.79,15.79,0,0,1,3.32,9.69v2.07ZM576.94,70.64a8.66,8.66,0,0,1,1.83-15A1.83,1.83,0,0,0,579.9,54V34.56a24.51,24.51,0,0,1,8.86-18.86l.65,3.75A19.39,19.39,0,0,0,585,31.75V40.6a19.66,19.66,0,0,0,12.49,18.18L597,62.19H586.13l-.32,0A11.1,11.1,0,0,0,576.94,70.64Zm3.34,18.85V73.17a7.49,7.49,0,0,1,6-7.34h2.78L601.5,89.49Zm18.82-12.4h10.82L604.51,87.4Zm29.63,12.4H607.52l12.41-23.66h2.78a7.48,7.48,0,0,1,6,7.34V89.49Zm-5.52-27.27-.32,0H612l-.48-3.41A19.66,19.66,0,0,0,624,40.6V31.75a19.39,19.39,0,0,0-4.41-12.3l.65-3.75a24.51,24.51,0,0,1,8.86,18.86V54a1.83,1.83,0,0,0,1.13,1.68,8.66,8.66,0,0,1,1.83,15A11.11,11.11,0,0,0,623.21,62.22Z"/></g></g></svg>