<?xml version="1.0" encoding="UTF-8"?><svg xmlns="http://www.w3.org/2000/svg" viewBox="0 0 85.48 90.5"><defs><style>.d{fill:#2a2728;}</style></defs><g id="a"/><g id="b"><g id="c"><g><g><path class="d" d="M12.41,34.48c2.8,14.1,1.02,28.37,.99,42.61,0,2,.03,4.01,.12,6.01s.14,3.99,.49,5.93c.06,.31,.56,.24,.55-.07-.06-1.84-.3-3.67-.38-5.51s-.12-3.55-.13-5.32c-.01-3.59,.1-7.18,.24-10.77,.28-7.07,.65-14.16,.2-21.24-.25-3.96-.77-7.87-1.7-11.74-.06-.25-.44-.14-.39,.11h0Z"/><path class="d" d="M11.05,34.48c4.24,.21,8.49,.12,12.73,.12s8.37-.04,12.56-.06l25.11-.12,7.07-.03c2.3-.01,4.67,.12,6.95-.22,.21-.03,.21-.39,0-.42-2-.29-4.05-.17-6.07-.17l-6.37,.03-12.56,.05c-8.37,.03-16.74,.06-25.11,.1-4.77,.02-9.56-.04-14.32,.24-.31,.02-.31,.46,0,.48h0Z"/><path class="d" d="M14.04,89.26c15.1,1.24,30.39,1.63,45.52,.83,3.9-.21,7.83-.42,11.69-1.05,.33-.05,.26-.61-.08-.59-7.3,.55-14.57,1.09-21.9,1.18-7.77,.1-15.53-.05-23.29-.39-3.98-.18-7.97-.41-11.94-.66-.44-.03-.44,.65,0,.69h0Z"/><path class="d" d="M71.63,88.64c-.61-13.98,.1-28.1,1.4-42.03,.38-4.04,.72-8.08,1.35-12.09,.07-.43-.59-.62-.66-.18-1.23,7.46-1.95,14.97-2.44,22.52s-.84,15.48-.78,23.22c.02,2.89,.04,5.79,.52,8.64,.06,.34,.62,.26,.6-.08h0Z"/><path class="d" d="M13.07,36.32c-.72-.22-1.52-.25-2.27-.36-.4-.06-.4,0-.51-.33-.09-.28-.03-.72-.04-1.02-.06-1.46-.12-2.92-.21-4.38l-.25-4.38c-.08-1.32,.06-2.87-.38-4.13-.05-.15-.28-.17-.32,0-.18,.72-.09,1.49-.06,2.23l.1,2.48c.07,1.7,.14,3.4,.2,5.1,.03,.83,.09,1.65,.13,2.48,.04,.63-.05,1.46,.15,2.06,.13,.38,.44,.48,.81,.52,.83,.11,1.75,.22,2.59,.16,.25-.02,.32-.37,.06-.45h0Z"/><path class="d" d="M9.33,21.7c2.26,.27,4.56,.15,6.84,.14s4.37-.02,6.55-.02c4.35,0,8.7,0,13.05,.03,8.59,.06,17.19,.21,25.78,.44,5.03,.13,10.07,.41,15.1,.38,.61,0,.59-.89,0-.93-4.5-.35-9.04-.38-13.56-.51s-8.58-.2-12.88-.27c-8.65-.14-17.3-.2-25.95-.16-2.52,.01-5.05,.03-7.57,.06s-4.98-.05-7.43,.3c-.34,.05-.21,.51,.07,.55h0Z"/><path class="d" d="M76.7,21.71c-.3,.8-.2,1.73-.21,2.57l-.02,2.79c-.01,1.58,.06,3.18-.03,4.76-.06,1.07-.18,2.14-.39,3.19-.04,.19-.09,.38-.13,.56,0,.03-.02,.13-.05,.16,.14-.14-.04-.11-.16-.12-.55-.08-1.21,.04-1.76,.07-.41,.02-.41,.6,0,.63,.68,.05,1.41,.16,2.09,.13,.38-.02,.54-.16,.67-.51,.38-.99,.43-2.2,.53-3.24,.15-1.59,.1-3.19,.09-4.79,0-1.02-.01-2.05-.02-3.07s.15-2.18-.21-3.13c-.08-.2-.33-.2-.41,0h0Z"/><path class="d" d="M43.43,21.23c-.43-2.46-2.11-4.39-3.94-5.97-1.94-1.67-4.07-3.14-6.32-4.37-4.55-2.5-9.62-4.03-14.79-4.49-1.24-.11-2.63-.3-3.87-.09-1.07,.18-1.59,1.03-2.09,1.91-.69,1.21-1.28,2.47-1.77,3.77-.38,1-1.08,2.36-.51,3.41,.49,.9,1.61,1.39,2.51,1.77,1.1,.47,2.27,.75,3.45,.92,2.6,.36,5.22,.16,7.83,.04,6.76-.32,13.44,.62,19.84,2.82,.4,.14,.56-.48,.17-.62-4.88-1.8-10-2.79-15.2-2.99-4.76-.18-9.85,.96-14.51-.38-1.06-.3-2.3-.73-3.13-1.49-1.06-.98,.21-3.31,.68-4.41s.97-2.16,1.61-3.13c.51-.76,1.09-.98,1.99-.97,.7,0,1.39,.04,2.09,.09,4.8,.35,9.5,1.68,13.81,3.8,2.37,1.17,4.63,2.59,6.7,4.24s4.19,3.62,4.7,6.34c.09,.49,.82,.28,.74-.2h0Z"/><path class="d" d="M43.68,20.91c-.52-2.32-3.27-3.54-5.26-4.28-3.02-1.12-6.14-2.03-9.29-2.69-6.2-1.3-12.81-1.5-18.82,.77-.42,.16-.25,.84,.19,.69,5.81-1.99,11.96-1.92,17.94-.76,2.95,.58,5.85,1.39,8.7,2.35,1.21,.41,2.43,.83,3.53,1.49s1.82,1.52,2.45,2.67c.17,.31,.63,.09,.56-.24h0Z"/><path class="d" d="M43.57,20.94c2.29-9.91,11.29-15.83,20.52-18.52,1.21-.35,2.43-.66,3.66-.93,.61-.14,1.23-.26,1.85-.38,.78-.15,1.79-.47,2.53-.04,1,.58,1.4,2.32,1.71,3.34,.43,1.41,.68,2.88,.74,4.36,.03,.78,.25,1.83-.6,2.23-.54,.26-1.33,.29-1.91,.41-1.34,.29-2.67,.6-4,.91-2.77,.66-5.53,1.36-8.28,2.12-2.96,.82-5.91,1.7-8.84,2.64s-5.96,1.85-8.76,3.15c-.28,.13-.08,.58,.21,.5,3.02-.81,5.95-1.96,8.93-2.91s5.99-1.84,9.01-2.66,6.06-1.59,9.12-2.28c1.5-.34,3.01-.63,4.51-.98,1.2-.28,1.5-.99,1.52-2.17,.05-2.76-.52-5.72-1.8-8.18s-4.29-1.37-6.48-.87c-5.43,1.24-10.87,3.2-15.35,6.59s-7.92,8-8.99,13.46c-.09,.46,.6,.66,.71,.19h0Z"/><path class="d" d="M75.28,8.32c-2.33-.58-4.89-.5-7.27-.32s-4.76,.6-7.07,1.24c-4.74,1.3-9.16,3.5-13.06,6.48-2.11,1.61-4.18,3.45-5.78,5.58-.19,.25,.22,.56,.44,.34,1.61-1.68,3.18-3.34,5-4.8s3.97-2.8,6.11-3.91c4.21-2.18,8.84-3.58,13.55-4.04,2.69-.26,5.33-.04,8.01-.04,.3,0,.37-.46,.07-.53h0Z"/><path class="d" d="M43.26,20.6c-.13-1.08-.49-2.11-.79-3.15-.15-.52-.33-1.04-.45-1.57-.1-.46,.28-.58,.65-.7,.27-.09,.54-.17,.81-.25,.11-.03,.23-.1,.35-.11,.17-.02,.02-.06,.08,.04,.06,.1,.04,.36,.05,.48s.02,.24,.03,.36c.02,.28,.04,.56,.06,.84,.03,.52,.04,1.05,.05,1.57,0,.28,0,.56,0,.85,0,.24,0,.5,.13,.71,.07,.1,.24,.15,.32,.04,.29-.36,.22-.91,.23-1.35,0-.54,0-1.09-.02-1.63s-.05-1.05-.09-1.57c-.03-.38-.04-.85-.43-1.04s-.95,.1-1.34,.22-.83,.21-1.17,.46c-.84,.61-.27,1.69-.03,2.48,.36,1.15,.65,2.34,1.18,3.42,.09,.18,.43,.1,.4-.11h0Z"/><path class="d" d="M42.28,20.31c-4.29-2.11-9.66-1.3-14.15-.26s-8.62,2.96-11.29,6.63c-2.48,3.4-3.21,7.97-2.15,12.02s3.99,7.26,7.86,8.83,8.19,1.42,11.71-.64c1.81-1.06,3.29-2.69,3.58-4.83,.24-1.82-.32-3.73-1.42-5.19-2.61-3.46-7.65-3.65-11.13-1.43-4.05,2.58-5.58,7.44-5.76,12.01-.21,5.27,.83,10.77-2.38,15.39-2.84,4.08-8.06,7.84-13.26,6.9-1.21-.22-2.38-.65-3.4-1.33-.3-.2-.66,.27-.38,.5,3.41,2.83,8.16,2.2,11.77,.09,3.73-2.18,7.06-5.71,8.15-9.97,1.2-4.66,.05-9.51,.77-14.22,.67-4.36,3.3-8.68,7.83-9.75,2.13-.5,4.57-.19,6.28,1.26,1.47,1.24,2.36,3.25,2.18,5.18-.42,4.47-6.07,6.21-9.86,6-3.89-.22-7.74-2.21-9.88-5.5s-2.54-7.81-1.18-11.6c1.68-4.65,5.96-7.45,10.52-8.84,2.34-.71,4.77-1.11,7.21-1.36,2.73-.28,5.59-.44,8.18,.62,.28,.12,.49-.36,.21-.5h0Z"/><path class="d" d="M41.89,21.55c6.5-2.04,9.65,6.5,11.16,11.19,.97,3.03,1.61,6.17,1.87,9.34s-.07,6.14,.35,9.18c.76,5.39,4.61,9.8,9.36,12.22s10.87,3.9,15.51,.79,6.71-10.02,4.28-15.28c-.18-.4-.85-.12-.71,.3,1.76,5.16,.58,11.4-4.39,14.36-2.51,1.5-5.42,1.42-8.2,.84s-5.37-1.53-7.72-3.04-4.23-3.46-5.54-5.85c-1.44-2.65-1.71-5.48-1.71-8.45,0-5.89-.82-11.61-3.01-17.11-1.07-2.68-2.31-5.61-4.49-7.58-1.83-1.67-4.68-2.7-6.95-1.3-.2,.13-.07,.47,.17,.4h0Z"/><path class="d" d="M36.37,21.12c-.21,1.06-.17,2.2-.17,3.28s.02,2.14,.09,3.21c.14,2.13,.29,4.39,.84,6.46,.09,.35,.69,.29,.64-.09-.24-2.13-.65-4.23-.79-6.38-.07-1.07-.12-2.14-.14-3.21s.1-2.16,0-3.21c-.02-.25-.42-.36-.48-.06h0Z"/><path class="d" d="M53.83,21.63c-.42,2.2-.18,4.49,.07,6.7,.12,1.11,.26,2.22,.36,3.33,.11,1.19,.08,2.39,.17,3.58,.02,.3,.49,.41,.56,.08,.42-2.17-.06-4.56-.33-6.73-.29-2.31-.44-4.56-.27-6.88,.02-.32-.5-.39-.56-.08h0Z"/><path class="d" d="M37.51,34.37c.9,7.11,.85,14.3,1,21.45s.26,14.29,.39,21.43c.07,4.07,.14,8.15,.21,12.22,0,.43,.67,.43,.67,0-.26-14.39-.42-28.79-.76-43.18-.1-4.02-.3-8.02-.85-12.01-.05-.37-.7-.28-.65,.09h0Z"/><path class="d" d="M53.94,34.52c-.21,3.58-.07,7.19-.05,10.78l.08,10.78c.05,7.13,.1,14.25,.14,21.38,.03,4.06,.05,8.13,.08,12.19,0,.51,.8,.52,.8,0-.12-14.31-.24-28.62-.35-42.93-.03-4.05,.07-8.15-.22-12.19-.02-.31-.46-.31-.48,0h0Z"/><path class="d" d="M44.01,17.95c.94-.87,1.68-1.96,2.54-2.9s1.8-1.85,2.75-2.72,1.96-1.68,2.98-2.46,2.12-1.43,3.08-2.27c.12-.11,0-.34-.16-.28-1.22,.45-2.31,1.23-3.36,1.98s-2.05,1.57-3.01,2.42-1.92,1.82-2.8,2.8-1.84,1.96-2.41,3.12c-.13,.25,.18,.5,.39,.3h0Z"/><path class="d" d="M41.61,17.93c-2.51-2.54-5.44-4.55-8.7-6-1.56-.7-3.18-1.26-4.84-1.71s-3.44-.87-5.18-.83c-.15,0-.19,.23-.04,.26,1.64,.37,3.31,.57,4.94,1.02s3.34,1.09,4.93,1.85c3.1,1.48,5.97,3.47,8.5,5.79,.26,.24,.63-.13,.39-.39h0Z"/></g><path class="d" d="M11.92,21.8c-.23,.93,.06,1.9,.69,2.62,.71,.82,1.78,1.2,2.85,1.22s2.27-.29,3.17-.9c.84-.57,1.56-1.61,1.29-2.67-.07-.27-.52-.23-.5,.07,.07,1-.4,1.76-1.26,2.26-.78,.46-1.73,.7-2.64,.7s-1.75-.28-2.37-.91c-.59-.59-.94-1.42-.77-2.26,.06-.3-.39-.43-.46-.13h0Z"/><path class="d" d="M14.3,13.76c-.21,.2-.44,.4-.64,.61s-.41,.44-.62,.66l-.6,.64c-.21,.22-.46,.45-.6,.72s.15,.61,.43,.43c.26-.17,.45-.41,.66-.63l.61-.67,.6-.65c.2-.22,.39-.47,.58-.71,.1-.12,.12-.28,0-.4s-.29-.11-.4,0h0Z"/><path class="d" d="M16.19,13.42c-.45,.48-.9,.96-1.31,1.48-.21,.26-.41,.53-.62,.79-.1,.13-.19,.28-.28,.42-.1,.17-.21,.31-.17,.51,.02,.1,.15,.21,.26,.2,.2-.02,.29-.14,.42-.28,.12-.13,.24-.25,.34-.39,.19-.25,.39-.5,.59-.75,.41-.51,.79-1.04,1.19-1.56,.1-.13,.12-.3,0-.42-.11-.11-.31-.12-.42,0h0Z"/><path class="d" d="M18.43,13.48c-.56,.49-1.11,1-1.61,1.56-.24,.27-.48,.54-.72,.82-.13,.15-.26,.3-.37,.46s-.23,.31-.15,.51c.02,.05,.06,.11,.12,.12,.09,.01,.17,.02,.25-.02s.15-.13,.22-.2c.13-.13,.24-.27,.36-.41,.24-.28,.49-.56,.74-.84,.5-.55,1.01-1.1,1.54-1.63,.25-.24-.12-.6-.38-.38h0Z"/><path class="d" d="M20.13,13.44c-.31,.22-.54,.55-.8,.83s-.5,.56-.75,.83-.51,.54-.77,.81c-.14,.14-.26,.29-.38,.43s-.26,.27-.22,.48c.01,.06,.07,.11,.12,.12,.2,.06,.35-.09,.5-.21s.31-.23,.45-.37c.28-.27,.54-.54,.81-.82s.5-.55,.74-.84c.12-.15,.24-.3,.36-.45,.06-.08,.13-.16,.19-.25,.07-.09,.1-.19,.14-.29,.08-.21-.2-.42-.38-.29h0Z"/><path class="d" d="M41.14,18.37c-.16,.09-.34,.17-.49,.27s-.31,.21-.47,.3-.31,.19-.47,.28c-.08,.05-.16,.09-.25,.13-.1,.05-.21,.09-.26,.2-.07,.13,0,.24,.12,.29,.1,.04,.22,0,.32-.03,.09-.03,.19-.06,.28-.09,.2-.07,.39-.15,.57-.25,.16-.09,.32-.19,.48-.3,.18-.12,.31-.29,.45-.45,.07-.09,.09-.21,.02-.3-.07-.09-.19-.12-.29-.06h0Z"/><path class="d" d="M40.19,17.88c-.4,.15-.79,.3-1.19,.46-.19,.08-.38,.18-.57,.27s-.39,.18-.56,.31c-.16,.12-.07,.38,.14,.34s.42-.14,.62-.23,.39-.16,.57-.25c.38-.18,.75-.39,1.12-.59,.17-.09,.05-.39-.13-.31h0Z"/><path class="d" d="M39.04,17.06c-.14-.02-.27-.04-.41,0-.13,.04-.25,.11-.36,.17-.23,.13-.46,.25-.69,.37s-.47,.25-.71,.37-.5,.21-.71,.38c-.16,.12-.02,.4,.16,.39,.26-.01,.53-.12,.78-.22s.48-.2,.72-.31c.44-.21,.85-.48,1.29-.71,.18-.09,.15-.41-.06-.45h0Z"/><path class="d" d="M37.45,16.5c-.35-.16-.66,.01-.96,.19s-.65,.35-.97,.53-.63,.34-.94,.51c-.16,.09-.33,.17-.49,.25-.15,.08-.34,.12-.39,.3-.02,.06,.01,.13,.07,.16,.15,.09,.28,0,.43-.04,.16-.06,.32-.12,.49-.18,.3-.12,.6-.25,.9-.38s.58-.29,.87-.45c.15-.09,.3-.17,.45-.26,.09-.05,.28-.24,.38-.22s.22-.02,.26-.13c.04-.09,0-.23-.09-.28h0Z"/><path class="d" d="M35.32,15.7c-.41,.33-.83,.65-1.24,.97-.21,.16-.41,.33-.61,.5-.18,.15-.49,.31-.51,.57,0,.06,.05,.13,.11,.15,.25,.06,.5-.2,.69-.34,.22-.16,.44-.32,.65-.5,.41-.34,.8-.7,1.2-1.06,.08-.08,.08-.21,0-.29-.09-.09-.2-.07-.29,0h0Z"/><path class="d" d="M33.56,15.42c-.47,.13-.85,.45-1.21,.77l-1.21,1.06c-.14,.13-.48,.35-.45,.57,.03,.25,.36,.06,.46-.01,.22-.15,.42-.34,.63-.51l.63-.51c.23-.18,.47-.36,.68-.55,.19-.18,.38-.35,.63-.46,.2-.09,.06-.41-.15-.36h0Z"/><path class="d" d="M32.16,15.05c-.14,.02-.28,.05-.4,.12s-.23,.17-.34,.25c-.23,.18-.46,.35-.7,.52s-.48,.34-.72,.5c-.26,.17-.54,.32-.77,.54-.18,.17,0,.5,.24,.42,.29-.09,.53-.26,.78-.42s.5-.34,.74-.51,.48-.36,.71-.55c.09-.07,.18-.15,.28-.22,.12-.08,.22-.18,.34-.26,.22-.14,.07-.43-.17-.4h0Z"/><path class="d" d="M19.49,16.9c.52-.46,1.01-.94,1.51-1.42,.24-.23,.49-.46,.73-.69,.13-.12,.25-.24,.38-.35s.3-.24,.39-.39c.13-.22-.12-.44-.33-.33-.15,.07-.28,.23-.4,.34s-.25,.24-.38,.36c-.25,.24-.5,.48-.75,.72-.5,.48-.98,.97-1.44,1.49-.17,.19,.09,.45,.28,.28h0Z"/><path class="d" d="M21.11,17.28c.62-.63,1.24-1.27,1.88-1.88,.31-.29,.64-.57,.98-.83,.18-.13,.36-.25,.54-.38s.43-.22,.53-.41c.09-.15-.02-.33-.19-.33-.21,0-.41,.15-.59,.26-.2,.12-.38,.26-.57,.4-.36,.28-.7,.57-1.03,.88-.66,.63-1.23,1.33-1.8,2.05-.13,.17,.08,.41,.24,.24h0Z"/><path class="d" d="M22.8,16.75v.02l.19-.15h-.02l.15,.06v-.02l.02,.27s.13-.1,.18-.13c.06-.05,.12-.1,.17-.15,.13-.11,.26-.23,.4-.34,.26-.22,.52-.43,.79-.64s.51-.42,.76-.63,.59-.44,.68-.76c.02-.08-.04-.17-.12-.16-.35,.01-.67,.32-.94,.53-.3,.23-.59,.45-.88,.69s-.54,.46-.81,.7c-.14,.12-.27,.25-.4,.37s-.27,.27-.23,.47c.01,.07,.08,.14,.15,.15,.1,.02,.17,0,.25-.07,.05-.04,.08-.14,.05-.2v-.02c-.07-.18-.33-.2-.39,0h0Z"/><path class="d" d="M24.66,17.3c.15-.07,.27-.2,.39-.32s.26-.23,.39-.34c.27-.23,.56-.45,.85-.65,.59-.41,1.24-.73,1.87-1.08,.21-.12,.74-.32,.64-.64-.11-.36-.62-.04-.81,.06-.63,.35-1.28,.67-1.89,1.07-.33,.22-.64,.46-.94,.72-.15,.13-.29,.27-.43,.4s-.32,.28-.4,.46c-.1,.21,.1,.41,.31,.31h0Z"/><path class="d" d="M26.24,17.6c.78-.46,1.55-.95,2.34-1.42,.38-.23,.77-.45,1.16-.68,.2-.12,.4-.23,.6-.34s.42-.19,.58-.34c.17-.16,.05-.5-.2-.48-.23,.01-.43,.12-.64,.21s-.43,.18-.64,.28c-.42,.2-.82,.42-1.22,.66-.8,.48-1.55,1.01-2.3,1.57-.31,.23-.04,.75,.31,.54h0Z"/><path class="d" d="M47.03,16.39c-.21,.38-.39,.78-.53,1.2-.07,.2-.13,.41-.17,.62-.02,.11-.03,.22-.04,.33-.01,.12-.04,.25,0,.36,.07,.2,.34,.25,.46,.06,.06-.1,.07-.2,.09-.31,.02-.1,.04-.19,.06-.29,.04-.2,.08-.41,.13-.61,.11-.38,.25-.76,.43-1.11,.14-.29-.27-.54-.43-.25h0Z"/><path class="d" d="M48.48,15.57c-.16,.49-.28,.98-.36,1.49-.04,.25-.07,.5-.1,.74-.03,.27-.06,.53,0,.79,.04,.21,.35,.19,.41,0,.07-.24,.07-.49,.09-.74s.05-.48,.09-.73c.07-.49,.17-.98,.27-1.46,.06-.26-.31-.36-.4-.11h0Z"/><path class="d" d="M49.7,14.55c-.18,.67-.33,1.36-.41,2.05-.04,.36-.07,.72-.09,1.08,0,.17-.01,.34,0,.51,.01,.13,.04,.27,.2,.31,.33,.08,.32-.47,.33-.67,.02-.36,.04-.72,.08-1.08,.07-.7,.15-1.4,.28-2.09,.05-.25-.32-.36-.39-.11h0Z"/><path class="d" d="M51.62,13.49c-.17,.66-.33,1.32-.43,1.99s-.21,1.35-.21,2.02c0,.27,.46,.36,.5,.07,.09-.66,.12-1.32,.21-1.98s.15-1.34,.25-2.01c.03-.2-.26-.29-.31-.09h0Z"/><path class="d" d="M52.87,12.6c-.08,.66-.16,1.32-.22,1.99-.03,.32-.03,.65-.04,.98,0,.27-.07,.67,.18,.85,.04,.03,.11,.03,.15,0,.25-.16,.22-.59,.23-.85,.02-.33,.05-.65,.06-.98,.02-.66,.05-1.33,.09-1.99,.02-.3-.42-.28-.46,0h0Z"/><path class="d" d="M54.44,12.11l-.08,1.4c-.01,.23-.03,.46-.03,.69s-.02,.49,.06,.72,.39,.22,.47,0,.07-.49,.08-.72,0-.46,0-.69l-.04-1.4c0-.29-.43-.28-.44,0h0Z"/><path class="d" d="M55.72,11.36c-.1,.9-.16,1.8-.13,2.7,.01,.41,.61,.41,.63,0,.05-.9,.02-1.8-.06-2.7-.02-.29-.41-.28-.44,0h0Z"/><path class="d" d="M57.18,10.73c0,.43-.02,.85-.05,1.28-.01,.21-.03,.42-.03,.63s-.03,.44-.02,.65c0,.1,.05,.22,.15,.26,.08,.03,.15,.05,.23,.03,.1-.03,.19-.11,.21-.21,.04-.22,.04-.46,.05-.68s0-.44,0-.65c-.01-.44-.04-.87-.07-1.31-.02-.3-.47-.31-.48,0h0Z"/><path class="d" d="M58.58,10.38v1.13c-.01,.19,0,.38,.01,.57s0,.45,.1,.62,.36,.18,.47,0,.07-.42,.07-.62,0-.38-.01-.57l-.09-1.13c-.01-.15-.12-.28-.28-.28s-.28,.13-.28,.28h0Z"/><path class="d" d="M60.47,9.8c-.07,.34-.04,.7-.04,1.04s-.04,.71,.05,1.05c.04,.13,.17,.24,.31,.24,.15,0,.26-.1,.31-.24,.13-.32,.1-.71,.09-1.05,0-.17-.02-.33-.04-.49-.02-.19-.04-.37-.11-.55-.05-.12-.15-.22-.29-.22-.13,0-.26,.09-.29,.22h0Z"/><path class="d" d="M62.41,9.53l-.06,.47c-.02,.16-.02,.31-.02,.47v.45c-.02,.17-.04,.37,.02,.53,.1,.28,.47,.28,.57,0,.06-.16,.04-.34,.03-.51v-.47c-.02-.15-.02-.3-.03-.45l-.06-.49c-.03-.29-.41-.29-.44,0h0Z"/><path class="d" d="M63.91,9.12l-.14,.93c-.03,.17-.06,.33-.07,.5s-.07,.39,.03,.55c.09,.14,.3,.19,.43,.05,.14-.14,.12-.36,.14-.55,.01-.16,.02-.32,.02-.48l.03-.95c0-.11-.08-.2-.19-.21-.1-.01-.22,.05-.24,.16h0Z"/><path class="d" d="M65.26,9c.02,.23,.02,.46,0,.69,0,.06-.01,.12-.02,.17,0,.07,0-.05,0,.03,0,.03,0,.05-.01,.08-.02,.13-.05,.27-.05,.4,0,.12,.09,.25,.21,.28,.12,.03,.27-.02,.33-.13,.12-.25,.12-.54,.13-.81s-.02-.51-.06-.77c-.02-.13-.17-.21-.29-.19s-.24,.13-.23,.26h0Z"/><path class="d" d="M67.03,8.69c-.01,.22-.03,.43-.05,.65,0,.05-.01,.11-.02,.16v.09s-.03,.1-.04,.15c-.01,.07-.01,.13,0,.2,0,.03,0,.06,.01,.09,.05,.24,.42,.29,.54,.07,.05-.09,.08-.17,.08-.27,0-.05,0-.1,0-.15,0-.11,.01-.22,.01-.33,0-.22,0-.44,0-.66,0-.14-.12-.27-.27-.27s-.26,.12-.27,.27h0Z"/><path class="d" d="M68.69,8.65l-.09,.57-.05,.28s-.02,.09-.02,.14c-.01,.07-.02,.13,0,.2,.01,.04,.03,.09,.06,.13,.09,.17,.35,.2,.48,.06,.03-.03,.06-.07,.08-.1,.04-.06,.05-.13,.06-.2,0-.04,0-.09,.01-.13l.03-.29,.05-.58c.01-.15-.12-.28-.26-.29s-.31,.07-.33,.21h0Z"/><path class="d" d="M70.04,9.04l.02,.2v.12c.02,.07,.02,.11,.06,.17,.03,.04,.05,.06,.08,.09,.04,.04,.08,.06,.13,.08,.04,.01,.08,.01,.12,0,.04,0,.08-.01,.11-.04,.04-.03,.08-.06,.11-.11v-.02s.03-.03,.04-.05c.02-.05,.04-.08,.03-.14v-.02l-.02-.1-.03-.2s0-.09-.03-.13c-.01-.04-.04-.08-.07-.11-.03-.03-.06-.05-.11-.07-.04-.02-.08-.03-.13-.03-.08,0-.17,.03-.23,.1l-.05,.07c-.03,.05-.04,.11-.04,.17h0Z"/><path class="d" d="M25.62,26.39c-1.73-.28-3.51,.57-4.24,2.2-.35,.77-.48,1.65-.28,2.48,.21,.89,.84,1.5,1.63,1.91s1.64,.71,2.52,.65,1.62-.4,2.27-.93c1.26-1.05,1.8-3.06,1.23-4.61-.2-.54-.8-.94-1.28-1.22-.39-.23-1.11-.65-1.55-.32-.18,.14-.09,.52,.18,.42s.78,.27,.99,.41c.33,.22,.71,.49,.95,.82,.3,.41,.26,1.29,.18,1.81-.1,.66-.38,1.31-.83,1.81-.98,1.1-2.39,1.33-3.74,.81-.64-.25-1.34-.6-1.68-1.23s-.32-1.41-.13-2.07c.47-1.62,2.07-2.6,3.72-2.39,.3,.04,.37-.48,.07-.52h0Z"/><path class="d" d="M32.96,21.44c-.55,.13-.71,.72-.77,1.21-.08,.67-.17,1.41-.08,2.09s.43,1.18,1.04,1.46c.55,.25,1.2,.39,1.81,.41s1.47-.1,1.87-.63c.13-.16-.03-.42-.24-.31-.28,.16-.51,.31-.83,.36s-.63,.04-.94,0-.62-.11-.93-.2-.63-.19-.86-.41c-.5-.46-.39-1.26-.35-1.87,.02-.36,0-.73,.05-1.08,.03-.23,.09-.54,.35-.62,.27-.08,.16-.49-.12-.43h0Z"/><path class="d" d="M54.91,32.14c.76-.61,1.88-.83,2.8-.48,.42,.16,.8,.45,1.09,.78,.32,.37,.49,.81,.65,1.26,.1,.29,.56,.26,.56-.08-.02-1.17-1.03-2.23-2.09-2.61-1.16-.41-2.49-.09-3.33,.8-.21,.22,.1,.5,.32,.32h0Z"/><path class="d" d="M58.68,22.09c-.31,.95,.02,2.02,.71,2.73,.77,.79,1.93,.99,3,.89s2.26-.38,3.11-1.09c.65-.54,1.38-1.84,.71-2.62-.15-.17-.39-.02-.41,.17-.04,.41,.03,.77-.15,1.17s-.48,.71-.84,.94c-.74,.46-1.67,.64-2.53,.71s-1.76-.05-2.38-.67c-.56-.57-.73-1.38-.64-2.15,.04-.34-.47-.37-.57-.08h0Z"/><path class="d" d="M69.39,25.04c-1.49,.12-2.58,1.16-2.99,2.56-.2,.68-.4,1.51,.02,2.16,.34,.53,.96,.8,1.54,.97,1.35,.38,2.92,.43,3.93-.7,.78-.88,1-2.22,.48-3.29-.31-.63-.86-1.14-1.49-1.44-.53-.25-1.49-.55-1.99-.12-.09,.08-.07,.26,.04,.31,.23,.11,.44,.09,.69,.11s.52,.09,.77,.17c.49,.16,.93,.46,1.26,.85,.64,.77,.69,1.88,.2,2.74-.64,1.13-1.94,1.24-3.11,1.02-.52-.1-1.08-.23-1.53-.54-.53-.38-.55-.96-.42-1.55,.15-.69,.37-1.4,.86-1.93,.45-.49,1.07-.8,1.74-.88,.26-.03,.27-.44,0-.42h0Z"/><path class="d" d="M15.14,52.66c1.28-.76,2.44-1.98,2.36-3.58-.04-.72-.35-1.4-.91-1.86-.27-.23-.57-.41-.89-.56-.17-.08-.35-.17-.53-.23s-.37-.02-.55-.01c-.13,0-.23,.18-.12,.28,.1,.09,.19,.19,.3,.27,.12,.09,.26,.13,.4,.19,.27,.12,.54,.25,.77,.43,.5,.38,.77,.92,.79,1.54,.04,1.3-.93,2.32-1.95,2.98-.34,.22-.03,.76,.32,.55h0Z"/><path class="d" d="M24.84,42.55c-.53,1.15,.15,2.49,1.27,2.97,1.22,.52,2.69,.22,3.69-.62,.94-.79,1.36-2.15,.89-3.3-.26-.64-.77-1.09-1.39-1.37s-1.44-.63-2.16-.54-1.61,.58-2.11,1.13c-.45,.5-.74,1.38-.23,1.93,.15,.16,.45,0,.38-.22-.18-.55-.05-1.02,.4-1.4,.39-.33,.95-.62,1.46-.69,.57-.07,1.19,.18,1.71,.39,.45,.18,.92,.43,1.18,.85,.53,.83,.34,1.9-.33,2.59s-1.81,1.05-2.79,.86c-1.11-.22-2.09-1.25-1.66-2.43,.07-.19-.24-.32-.33-.14h0Z"/><path class="d" d="M38.48,49.5c-1.62,.47-2.72,1.99-2.73,3.67,0,.92,.35,1.76,.85,2.52,.22,.34,.46,.7,.75,.98,.35,.34,.71,.4,1.14,.61,.1,.05,.18-.1,.08-.14-.32-.15-.47-.48-.69-.75s-.45-.55-.66-.84c-.47-.65-.85-1.37-.91-2.18-.1-1.54,.86-2.9,2.28-3.44,.26-.1,.16-.51-.12-.43h0Z"/><path class="d" d="M25.54,56.21c-1.49,.94-2.53,2.57-2.29,4.37s1.64,3.1,3.45,3.2,3.8-1.02,4.74-2.54c1-1.62,.25-3.59-1.18-4.67-.76-.57-1.7-.98-2.65-1.09-.85-.1-1.9,.06-2.4,.84-.17,.27,.2,.51,.42,.32,1.14-.96,2.73-.53,3.9,.17,1.29,.77,2.27,2.35,1.62,3.86s-2.34,2.52-3.87,2.62c-1.62,.1-3.07-.84-3.46-2.44-.4-1.69,.54-3.37,1.91-4.32,.2-.14,.02-.47-.2-.34h0Z"/><path class="d" d="M14.01,70.85c.81,.19,1.81,.3,2.32,1.05s.39,1.93,.36,2.8-.14,1.85-.64,2.61c-.57,.87-1.5,1.15-2.4,1.55-.36,.16-.1,.73,.27,.63,1.04-.27,2.1-.87,2.71-1.77s.75-2.08,.77-3.16,.11-2.28-.56-3.14-1.76-1.08-2.74-1.16c-.34-.03-.41,.51-.08,.59h0Z"/><path class="d" d="M29.23,78.33c-1.91,.62-2.41,2.93-1.93,4.66,.56,2.02,2.38,3.63,4.53,3.64s4.19-1.68,4.87-3.67c.75-2.19-.63-4.46-2.64-5.35-1.86-.83-4.87-.78-5.9,1.33-.14,.28,.24,.63,.46,.36,1.06-1.32,2.73-1.78,4.36-1.38,1.84,.44,3.44,1.96,3.41,3.95s-1.77,3.82-3.62,4.17-3.76-.66-4.6-2.34c-.78-1.56-.77-4.24,1.16-4.97,.24-.09,.15-.48-.11-.4h0Z"/><path class="d" d="M38.88,66.01c-.48-.07-.82,.24-1.17,.53-.37,.32-.73,.64-1.01,1.04-.58,.83-.65,1.9-.63,2.88s.18,2.07,.76,2.92c.24,.35,.53,.66,.87,.9,.28,.2,.77,.42,1.1,.22,.07-.04,.09-.13,.05-.2-.13-.24-.44-.38-.65-.53-.31-.23-.57-.48-.78-.81-.45-.72-.58-1.59-.6-2.43-.01-.78,0-1.65,.41-2.34,.2-.35,.48-.64,.77-.91,.13-.12,.25-.24,.38-.35,.18-.15,.38-.23,.57-.35,.2-.13,.22-.54-.08-.58h0Z"/><path class="d" d="M17.42,89.1c.37-.68,1.17-1.06,1.88-1.31s1.51-.39,2.29-.35c1.5,.08,2.91,.78,3.92,1.88,.22,.24,.57-.12,.35-.35-1.14-1.22-2.73-1.97-4.41-2-.83-.02-1.69,.14-2.45,.46s-1.51,.75-1.88,1.49c-.1,.2,.2,.38,.31,.18h0Z"/><path class="d" d="M56.22,84.08c-.47,1.31-.57,2.98,.76,3.83,.56,.36,1.28,.51,1.94,.55s1.34-.13,1.86-.59,.95-1.11,1.23-1.72,.43-1.29,.21-1.93c-.39-1.13-1.64-1.78-2.79-1.7-.78,.05-1.5,.35-2.14,.78-.55,.36-1.48,.92-1.3,1.69,.04,.18,.34,.24,.43,.06,.23-.49,.69-.81,1.13-1.1,.46-.3,.96-.55,1.5-.68,.89-.21,1.98,.04,2.47,.88,.57,.99-.23,2.19-.87,2.94-.36,.42-.78,.69-1.34,.72s-1.11-.05-1.61-.23c-1.43-.52-1.42-2.14-1.07-3.38,.07-.26-.31-.36-.4-.11h0Z"/><path class="d" d="M65.04,74.78c-.46,.59-.9,1.25-.99,2.01s.23,1.42,.69,1.98c.83,.98,2.22,1.49,3.47,1.15s2.18-1.46,2.29-2.73-.76-2.49-1.85-3.12c-.7-.41-1.55-.64-2.36-.5-.72,.12-1.38,.62-1.56,1.34-.08,.31,.37,.52,.53,.22,.57-1.06,1.89-1.04,2.86-.57,.89,.43,1.69,1.26,1.71,2.3,.01,.96-.66,1.9-1.54,2.25s-2.04,.1-2.78-.53c-.47-.4-.88-.98-.92-1.61-.04-.74,.39-1.42,.79-2.01,.15-.22-.19-.4-.35-.2h0Z"/><path class="d" d="M55.74,62.8c-.36,.74-.71,1.51-.82,2.33-.09,.71,.07,1.42,.44,2.03,.76,1.27,2.37,1.93,3.79,1.46,.71-.23,1.31-.67,1.84-1.19,.26-.25,.55-.53,.72-.86,.17-.35,.18-.73,.19-1.11,.03-.73,.01-1.53-.43-2.15s-1.14-.97-1.8-1.27c-.77-.35-1.72-.78-2.58-.58-.73,.17-1.54,.84-1.85,1.51-.11,.24,.13,.57,.4,.4,.48-.32,.8-.83,1.34-1.07,.58-.26,1.26,0,1.84,.19,.6,.2,1.26,.45,1.77,.84s.68,.99,.69,1.62c0,.29,0,.58-.03,.86-.04,.37-.18,.6-.43,.86-.44,.44-.93,.86-1.5,1.12-1.1,.5-2.46,.23-3.23-.72-.42-.52-.62-1.18-.62-1.84,0-.79,.33-1.54,.63-2.26,.08-.2-.25-.34-.35-.15h0Z"/><path class="d" d="M71.94,50.76c-.85-.93-2.45-.17-3.15,.56-.87,.9-1.61,2.18-1.66,3.45-.04,1.19,.47,2.39,1.37,3.18,.43,.38,.93,.69,1.49,.85,.5,.14,1.14,.26,1.63,.03,.11-.05,.11-.24,0-.3-.39-.19-.85-.24-1.26-.4s-.84-.39-1.19-.68c-.74-.61-1.19-1.53-1.2-2.49-.01-1.02,.55-1.97,1.18-2.74,.32-.39,.72-.76,1.19-.93s.91-.07,1.4,0c.27,.03,.36-.33,.21-.5h0Z"/><path class="d" d="M57.44,39.62c-.68,1.6-.59,3.53,.64,4.85,1.06,1.13,2.8,1.59,4.27,1.08s2.55-1.97,2.69-3.55c.07-.83-.14-1.74-.66-2.41-.56-.71-1.5-1.18-2.34-1.47-1.76-.6-4.25-.13-4.92,1.83-.11,.32,.34,.46,.52,.22,.87-1.23,2.26-1.72,3.72-1.44,.77,.15,1.56,.47,2.19,.95s.87,1.24,.85,2.02c-.04,1.27-.82,2.54-2,3.06s-2.58,.26-3.53-.52c-1.31-1.05-1.52-3-1.01-4.51,.09-.26-.3-.35-.41-.11h0Z"/><path class="d" d="M71.91,33.9c-1.55,.25-1.83,2.42-1.66,3.67,.19,1.45,1.18,2.96,2.7,3.27,.3,.06,.54-.39,.22-.53-1.16-.49-1.97-1.41-2.21-2.66-.19-1-.09-2.88,1.08-3.29,.29-.1,.17-.5-.12-.45h0Z"/><path class="d" d="M11.53,34.31c-.36,.53-.66,1.1-.86,1.71-.04,.12,.05,.26,.16,.29,.13,.04,.24-.04,.29-.16,.22-.56,.45-1.11,.75-1.63,.12-.22-.2-.4-.34-.2h0Z"/><path class="d" d="M12.48,34.76c-.15,.29-.29,.58-.44,.88-.07,.14-.13,.29-.19,.44-.05,.12-.21,.37-.02,.45s.26-.2,.31-.32c.06-.15,.13-.3,.19-.45,.12-.31,.23-.61,.34-.92,.04-.11-.14-.19-.19-.08h0Z"/><path class="d" d="M14.75,34.21c-.32,.29-.63,.6-.91,.94-.14,.17-.28,.35-.41,.53s-.26,.38-.35,.59,.26,.42,.4,.23c.14-.17,.24-.36,.36-.54s.24-.36,.36-.53c.24-.34,.51-.66,.8-.96,.16-.17-.08-.42-.26-.26h0Z"/><path class="d" d="M17.17,34.2c-.57,.38-1.12,.8-1.62,1.27-.24,.23-.48,.47-.71,.72-.12,.13-.23,.26-.34,.39s-.26,.27-.33,.42c-.09,.19,.12,.35,.29,.22,.13-.1,.23-.27,.34-.39s.21-.25,.32-.37c.23-.25,.46-.49,.7-.72,.48-.46,.99-.91,1.51-1.32,.12-.09-.04-.29-.16-.21h0Z"/><path class="d" d="M18.78,34.08c-.5,.4-.97,.81-1.41,1.27-.21,.22-.42,.44-.63,.67-.11,.12-.21,.24-.31,.36-.11,.13-.24,.26-.31,.42-.08,.19,.19,.38,.35,.27,.13-.09,.22-.23,.33-.36,.1-.12,.19-.23,.29-.34,.21-.24,.42-.47,.63-.71,.42-.45,.85-.91,1.29-1.35,.16-.16-.07-.37-.24-.24h0Z"/><path class="d" d="M20.75,34.05c-1.22,.69-2.31,1.67-3.11,2.83-.16,.24,.22,.54,.4,.31,.42-.53,.85-1.05,1.34-1.53s1-.92,1.54-1.32c.17-.13,.02-.41-.17-.3h0Z"/><path class="d" d="M22.18,34.34c-.46,.38-.9,.78-1.3,1.23-.2,.22-.39,.44-.57,.67-.1,.12-.19,.25-.28,.38-.1,.15-.18,.28-.15,.46,.01,.08,.12,.17,.21,.16,.18-.02,.28-.12,.39-.25,.1-.11,.19-.22,.29-.33,.19-.23,.38-.45,.57-.67,.39-.44,.78-.89,1.19-1.31,.22-.23-.1-.53-.34-.34h0Z"/><path class="d" d="M24.35,34.07c-.28,.21-.56,.41-.81,.66s-.49,.52-.72,.79-.45,.55-.66,.84c-.1,.14-.19,.29-.28,.44-.1,.17-.22,.32-.24,.52s.23,.32,.39,.23c.15-.09,.24-.25,.34-.39s.21-.28,.31-.42c.2-.27,.39-.53,.59-.79s.42-.5,.65-.75c.24-.26,.45-.53,.68-.79,.15-.17-.05-.48-.26-.33h0Z"/><path class="d" d="M26.42,34.14c-.36,.45-.72,.89-1.05,1.35l-.48,.67c-.16,.22-.38,.45-.41,.73,0,.08,.09,.15,.16,.12,.25-.11,.4-.36,.57-.57l.52-.67c.35-.45,.67-.92,1-1.39,.13-.18-.17-.42-.31-.24h0Z"/><path class="d" d="M29.25,33.89c-.62,.5-1.21,1.05-1.76,1.62-.27,.29-.52,.59-.77,.9s-.54,.63-.71,.98c-.11,.23,.17,.47,.36,.28,.27-.28,.49-.62,.74-.92s.51-.6,.78-.89c.53-.59,1.09-1.14,1.68-1.66,.22-.19-.1-.49-.31-.31h0Z"/><path class="d" d="M31.06,33.86c-.49,.46-.96,.95-1.38,1.48-.21,.27-.42,.53-.61,.81-.09,.13-.17,.27-.25,.41s-.18,.32-.12,.49c.02,.06,.07,.11,.14,.11,.16-.01,.28-.12,.37-.24,.1-.13,.21-.27,.31-.4,.2-.26,.39-.53,.59-.79,.41-.52,.84-1.04,1.28-1.54,.19-.22-.11-.52-.32-.32h0Z"/><path class="d" d="M32.72,34.18c-.37,.47-.68,.99-1.02,1.49-.17,.25-.31,.52-.47,.79s-.34,.54-.46,.83c-.1,.24,.26,.41,.42,.25,.22-.23,.4-.53,.59-.79s.38-.51,.55-.77l.52-.79c.16-.24,.43-.56,.34-.87-.05-.18-.34-.3-.47-.12h0Z"/><path class="d" d="M36.21,34.37c-.21-.35-.66-.2-.88,.06-.27,.31-.52,.64-.77,.96s-.47,.66-.67,1.01c-.1,.17-.19,.33-.28,.51s-.23,.36-.18,.56c.02,.08,.11,.13,.18,.1,.16-.04,.24-.19,.33-.31,.11-.14,.22-.28,.32-.42,.2-.28,.42-.54,.61-.82s.38-.54,.58-.8c.1-.13,.2-.27,.31-.39,.04-.05,.09-.09,.14-.13,.01-.01,.03-.02,.04-.04,.06-.06,.02,0,0-.01,.17,.1,.38-.1,.27-.27h0Z"/><path class="d" d="M38.18,33.81c-.47,.5-.95,1.01-1.39,1.54-.21,.26-.43,.52-.64,.78-.11,.13-.22,.27-.32,.41-.1,.13-.23,.28-.17,.46,.03,.07,.07,.1,.14,.11,.17,.02,.29-.13,.38-.25,.1-.13,.2-.26,.3-.39,.21-.27,.43-.54,.65-.81,.43-.53,.85-1.07,1.29-1.59,.14-.17-.09-.42-.25-.25h0Z"/><path class="d" d="M39.98,34.01c-.37,.44-.7,.88-1.02,1.36-.16,.23-.31,.46-.46,.7s-.33,.48-.44,.74c-.14,.33,.26,.56,.47,.28,.17-.23,.3-.49,.45-.73,.14-.23,.28-.46,.43-.69,.3-.47,.6-.93,.89-1.41,.12-.19-.17-.43-.32-.25h0Z"/><path class="d" d="M42.2,34.09c-.42,.42-.8,.86-1.16,1.33-.17,.23-.34,.46-.5,.7s-.39,.5-.44,.78c-.03,.2,.18,.44,.38,.3,.24-.17,.38-.46,.55-.71s.32-.47,.49-.7c.33-.45,.68-.9,1.04-1.34,.09-.11,.1-.26,0-.36-.1-.1-.26-.1-.36,0h0Z"/><path class="d" d="M44.97,34.1c-.16,.08-.29,.24-.41,.37s-.25,.26-.38,.4c-.26,.27-.5,.57-.74,.85s-.48,.56-.71,.84c-.12,.14-.24,.28-.35,.42-.11,.13-.25,.26-.3,.43-.02,.08,.06,.18,.14,.14,.16-.06,.26-.19,.38-.31,.13-.13,.26-.26,.39-.39,.27-.26,.54-.53,.81-.79s.54-.5,.79-.77c.13-.13,.25-.27,.38-.4s.3-.28,.38-.45c.11-.24-.12-.49-.36-.36h0Z"/><path class="d" d="M46.43,34.21c-.4,.81-.85,1.59-1.33,2.35-.1,.15-.28,.43-.13,.61s.42-.05,.53-.17c.31-.35,.56-.75,.78-1.15,.26-.46,.47-.93,.65-1.42,.1-.29-.36-.49-.5-.21h0Z"/><path class="d" d="M49.26,33.95c-.25,.16-.39,.45-.54,.69s-.32,.49-.48,.73-.32,.47-.48,.7c-.08,.12-.17,.25-.26,.37-.04,.05-.08,.11-.11,.17-.04,.09-.03,.16-.02,.25,.01,.07,.1,.14,.17,.13,.17-.01,.27-.09,.38-.22,.09-.11,.18-.22,.27-.33,.19-.24,.38-.49,.55-.75,.16-.24,.32-.49,.47-.74s.34-.53,.35-.84c0-.14-.17-.25-.29-.17h0Z"/><path class="d" d="M51.62,34.44c-.38,.41-.67,.88-.96,1.36-.14,.23-.29,.46-.41,.71s-.28,.51-.36,.78c-.04,.13,.03,.27,.16,.32,.13,.05,.26,0,.34-.11,.15-.21,.26-.46,.38-.69,.13-.24,.25-.48,.38-.72,.26-.47,.56-.92,.79-1.4,.09-.19-.15-.42-.31-.24h0Z"/><path class="d" d="M53.86,33.95c-.49,.5-.93,1.03-1.33,1.61-.19,.28-.37,.57-.54,.87-.09,.15-.17,.3-.24,.45-.08,.17-.18,.33-.17,.52,0,.17,.21,.31,.36,.2,.27-.19,.41-.56,.57-.85,.17-.3,.35-.59,.53-.88,.37-.57,.75-1.14,1.16-1.68,.14-.19-.17-.42-.33-.26h0Z"/><path class="d" d="M56.43,33.91c-.24,.22-.47,.45-.68,.7l-.66,.76c-.22,.25-.42,.49-.63,.75s-.5,.51-.59,.84c-.06,.22,.17,.36,.36,.27,.29-.13,.49-.46,.69-.69,.22-.26,.43-.52,.64-.78l.62-.76c.21-.27,.41-.53,.59-.82,.13-.2-.16-.4-.32-.25h0Z"/><path class="d" d="M59.5,33.87c-.22,.1-.39,.3-.57,.45-.14,.12-.28,.24-.41,.37-.19,.19-.38,.38-.56,.59s-.35,.42-.52,.64c-.12,.15-.24,.31-.36,.47-.15,.2-.37,.41-.39,.67,0,.18,.19,.33,.37,.28,.24-.08,.37-.32,.52-.51,.11-.14,.22-.29,.34-.43,.17-.22,.35-.43,.54-.64s.37-.39,.56-.58c.12-.13,.24-.26,.37-.39,.16-.17,.36-.34,.47-.55,.12-.24-.12-.47-.36-.36h0Z"/><path class="d" d="M61.78,33.87c-.44,.52-.83,1.08-1.25,1.62-.21,.27-.39,.55-.59,.83-.1,.14-.19,.27-.29,.41-.09,.13-.2,.3-.14,.45,.03,.07,.07,.1,.14,.11,.15,.02,.29-.12,.39-.22,.11-.12,.22-.25,.33-.38,.22-.27,.46-.54,.67-.82,.4-.55,.81-1.1,1.14-1.69,.14-.24-.21-.54-.4-.31h0Z"/><path class="d" d="M64.12,33.96c-.35,.42-.68,.86-.99,1.32-.15,.22-.28,.47-.41,.71-.06,.12-.13,.24-.19,.36s-.15,.26-.18,.4,.01,.27,.14,.34c.11,.07,.28,.05,.37-.05,.1-.11,.15-.24,.22-.37,.06-.12,.12-.24,.19-.36,.12-.23,.26-.46,.38-.69,.25-.48,.52-.94,.81-1.39,.13-.2-.18-.45-.34-.26h0Z"/><path class="d" d="M66.72,34.14c-.39,.4-.77,.8-1.13,1.22-.17,.2-.33,.4-.49,.6-.18,.24-.38,.48-.51,.75-.11,.24,.17,.48,.37,.29,.22-.21,.39-.47,.57-.72,.15-.2,.3-.4,.45-.59,.33-.43,.67-.85,1.02-1.26,.17-.2-.1-.48-.29-.29h0Z"/><path class="d" d="M69.27,34.03c-.2,0-.35,.15-.48,.28-.13,.12-.24,.25-.36,.38-.21,.23-.42,.47-.63,.71s-.4,.49-.59,.75c-.1,.14-.2,.27-.3,.41s-.24,.32-.26,.49c-.03,.22,.16,.37,.36,.28,.15-.07,.28-.24,.38-.37s.21-.25,.31-.38c.2-.24,.4-.48,.6-.73s.4-.47,.6-.71c.11-.12,.22-.25,.33-.37,.12-.14,.29-.32,.28-.52,0-.13-.1-.23-.23-.23h0Z"/><path class="d" d="M71.49,33.87c-1,.97-1.83,2.1-2.83,3.07-.08,.08-.12,.22-.09,.33,.04,.13,.11,.19,.24,.24,.11,.04,.25,0,.33-.09,.51-.5,.97-1.02,1.4-1.59s.84-1.1,1.3-1.61c.21-.23-.12-.57-.35-.35h0Z"/><path class="d" d="M73.64,33.87c-.21,.09-.34,.25-.5,.41-.14,.15-.28,.31-.41,.47-.28,.34-.56,.68-.83,1.03s-.52,.69-.77,1.05c-.12,.17-.23,.34-.35,.52-.12,.18-.29,.39-.32,.61-.03,.21,.17,.42,.38,.29,.18-.11,.29-.29,.41-.46,.13-.18,.26-.36,.39-.53,.26-.34,.52-.68,.77-1.02s.5-.65,.76-.97c.14-.17,.29-.34,.42-.52,.13-.17,.29-.33,.35-.54,.04-.17-.13-.4-.32-.32h0Z"/><path class="d" d="M13.64,37.84c7.61,.16,15.24-.19,22.85-.32,7.53-.13,15.1-.31,22.63-.12,4.32,.11,8.65,.15,12.97,.35,.51,.02,.51-.78,0-.8-7.59-.35-15.19-.28-22.79-.17s-15.1,.14-22.65,.23c-4.33,.05-8.68,0-13.01,.2-.41,.02-.41,.62,0,.63h0Z"/></g></g></g></svg>