<svg height="480pt" viewBox="0 -72 480 480" width="480pt" xmlns="http://www.w3.org/2000/svg"><path d="m440 0h-400c-22.082031.0273438-39.9726562 17.917969-40 40v256c.0273438 22.082031 17.917969 39.972656 40 40h400c22.082031-.027344 39.972656-17.917969 40-40v-256c-.027344-22.082031-17.917969-39.9726562-40-40zm-400 16h400c13.253906 0 24 10.746094 24 24v24h-448v-24c0-13.253906 10.746094-24 24-24zm424 112h-448v-48h448zm-24 192h-400c-13.253906 0-24-10.746094-24-24v-152h448v152c0 13.253906-10.746094 24-24 24zm0 0"/><path d="m256 272h-208c-4.417969 0-8 3.582031-8 8s3.582031 8 8 8h208c4.417969 0 8-3.582031 8-8s-3.582031-8-8-8zm0 0"/><path d="m48 256h48c4.417969 0 8-3.582031 8-8s-3.582031-8-8-8h-48c-4.417969 0-8 3.582031-8 8s3.582031 8 8 8zm0 0"/><path d="m128 256h64c4.417969 0 8-3.582031 8-8s-3.582031-8-8-8h-64c-4.417969 0-8 3.582031-8 8s3.582031 8 8 8zm0 0"/><path d="m392 176c-9.285156.78125-17.898438 5.160156-24 12.199219-6.101562-7.039063-14.714844-11.417969-24-12.199219-22.082031.027344-39.972656 17.917969-40 40 0 35.617188 53.878906 67.441406 60 70.945312 2.457031 1.402344 5.476562 1.402344 7.9375 0 6.183594-3.503906 60.0625-35.328124 60.0625-70.945312-.027344-22.082031-17.917969-39.972656-40-40zm-24 94.679688c-16.359375-10.167969-48-34.070313-48-54.679688 0-13.253906 10.746094-24 24-24 6.398438 0 14.207031 8.960938 17.976562 13.265625 1.5625 1.660156 3.742188 2.601563 6.023438 2.601563s4.460938-.941407 6.023438-2.601563c3.769531-4.304687 11.578124-13.265625 17.976562-13.265625 13.253906 0 24 10.746094 24 24 0 20.558594-31.640625 44.496094-48 54.679688zm0 0"/></svg>